<svg width="14" height="14" viewBox="0 0 14 14" fill="none" xmlns="http://www.w3.org/2000/svg">
<g id="Google">
<path id="Intersect" d="M1.01584 9.95406L3.25806 8.23942C3.12985 7.85001 3.06052 7.43342 3.06052 7.0001C3.06052 6.56678 3.12985 6.15019 3.25806 5.76078L1.01584 4.04614C0.578523 4.93525 0.333252 5.93764 0.333252 7.0001C0.333252 8.06256 0.578523 9.06495 1.01584 9.95406Z" fill="#FBBC05"/>
<path id="Intersect_2" d="M3.25809 5.76072C3.77542 4.18942 5.25145 3.06065 6.99995 3.06065C7.93934 3.06065 8.78783 3.39398 9.45449 3.93943L11.3939 2.00004C10.2121 0.969738 8.69692 0.333374 6.99995 0.333374C4.36544 0.333374 2.10025 1.84144 1.01587 4.04608L3.25809 5.76072Z" fill="#EA4335"/>
<path id="Subtract" d="M6.99987 13.6668C4.36463 13.6668 2.09892 12.1579 1.01489 9.95222L3.2562 8.23389C3.77188 9.80807 5.24933 10.9395 6.99987 10.9395C7.85647 10.9395 8.61545 10.7378 9.21651 10.3584L11.3452 12.0064C10.1799 13.0899 8.62595 13.6668 6.99987 13.6668Z" fill="#34A853"/>
<path id="Intersect_3" d="M7 5.78796H13.2121C13.303 6.1819 13.3636 6.60615 13.3636 7.00009C13.3636 9.17296 12.5687 10.8689 11.3453 12.0064L9.21664 10.3584C9.91264 9.91917 10.3969 9.24179 10.5758 8.36372H7V5.78796Z" fill="#4285F4"/>
</g>
</svg>
